SplineFontDB: 3.0
FontName: Odyssey2TypeNew
FullName: Odyssey2 Type New
FamilyName: Odyssey2 Type New
Weight: Regular
Copyright: Created with Chartotype, potrace and FontForge 2.0 - https://github.com/farique1\n\nBased on "KonamiSDSnatcherMSX" by "harrypotter20140603", which is based on "KonamiKlassic" by "sweetluvinbizkit", which is based on "Classic NES Font" by "FontofFame", which is based on "Nintendo NES Font" by "Goatmeal"
UComments: "2019-6-18: Created with FontForge (http://fontforge.org)"
Version: 001.000
ItalicAngle: 0
UnderlinePosition: -100
UnderlineWidth: 50
Ascent: 896
Descent: 128
InvalidEm: 0
LayerCount: 2
Layer: 0 0 "Back" 1
Layer: 1 0 "Fore" 0
XUID: [1021 379 -1044410058 5173581]
StyleMap: 0x0000
FSType: 0
OS2Version: 0
OS2_WeightWidthSlopeOnly: 0
OS2_UseTypoMetrics: 0
CreationTime: 1560861620
ModificationTime: 1560948129
PfmFamily: 17
TTFWeight: 400
TTFWidth: 5
LineGap: 0
VLineGap: 92
Panose: 2 0 5 9 0 0 0 0 0 0
OS2TypoAscent: 896
OS2TypoAOffset: 0
OS2TypoDescent: -512
OS2TypoDOffset: 0
OS2TypoLinegap: 0
OS2WinAscent: 896
OS2WinAOffset: 0
OS2WinDescent: 512
OS2WinDOffset: 0
HheadAscent: 896
HheadAOffset: 0
HheadDescent: -512
HheadDOffset: 0
OS2SubXSize: 665
OS2SubYSize: 716
OS2SubXOff: 0
OS2SubYOff: 143
OS2SupXSize: 665
OS2SupYSize: 716
OS2SupXOff: 0
OS2SupYOff: 491
OS2StrikeYSize: 51
OS2StrikeYPos: 265
OS2CapHeight: 896
OS2XHeight: 1024
OS2Vendor: '    '
MarkAttachClasses: 1
DEI: 91125
Encoding: ISO8859-1
UnicodeInterp: none
NameList: AGL For New Fonts
DisplaySize: -48
AntiAlias: 1
FitToEm: 0
WinInfo: 0 26 9
BeginPrivate: 0
EndPrivate
BeginChars: 262 112

StartChar: o
Encoding: 111 111 0
Width: 1024
VWidth: 0
Flags: W
HStem: 0 128<256 640> 768 128<256 640>
VStem: 0 256<128 768> 640 256<128 768>
LayerCount: 2
Fore
SplineSet
128 768 m 1
 128 896 l 1
 768 896 l 1
 768 768 l 1
 896 768 l 1
 896 128 l 1
 768 128 l 1
 768 0 l 1
 128 0 l 1
 128 128 l 1
 0 128 l 1
 0 768 l 1
 128 768 l 1
640 128 m 1
 640 768 l 1
 256 768 l 1
 256 128 l 1
 640 128 l 1
EndSplineSet
Validated: 1
EndChar

StartChar: i
Encoding: 105 105 1
Width: 1024
VWidth: 0
Flags: W
HStem: 0 128<256 384 640 768> 768 128<256 384 640 768>
VStem: 384 256<128 768>
LayerCount: 2
Fore
SplineSet
256 768 m 1
 256 896 l 1
 768 896 l 1
 768 768 l 1
 640 768 l 1
 640 128 l 1
 768 128 l 1
 768 0 l 1
 256 0 l 1
 256 128 l 1
 384 128 l 1
 384 768 l 1
 256 768 l 1
EndSplineSet
Validated: 1
EndChar

StartChar: ampersand
Encoding: 38 38 2
Width: 1024
VWidth: 0
Flags: W
HStem: 0 128<256 512 768 896> 128 256<0 128 512 640> 384 128<768 896> 640 128<128 256 640 768> 768 128<384 512>
VStem: 0 256<128 384> 512 256<128 384 640 768> 640 256<0 128 384 512>
LayerCount: 2
Fore
SplineSet
256 768 m 1x36
 256 896 l 1
 640 896 l 1x0d
 640 768 l 1x15
 768 768 l 1
 768 640 l 1x16
 640 640 l 1
 640 512 l 1x35
 512 512 l 1x36
 512 384 l 1x46
 256 384 l 1
 256 128 l 1
 512 128 l 1
 512 0 l 1
 128 0 l 1xa6
 128 128 l 1
 0 128 l 1
 0 384 l 1
 128 384 l 1x46
 128 512 l 1
 256 512 l 1
 256 640 l 1
 128 640 l 1
 128 768 l 1
 256 768 l 1x36
512 640 m 1x16
 512 768 l 1
 384 768 l 1x0e
 384 640 l 1
 512 640 l 1x16
640 384 m 1x45
 640 512 l 1
 896 512 l 1
 896 384 l 1x25
 768 384 l 1
 768 128 l 1xa6
 896 128 l 1
 896 0 l 1
 640 0 l 1xa5
 640 128 l 1x45
 512 128 l 1x86
 512 384 l 1x46
 640 384 l 1x45
EndSplineSet
Validated: 5
EndChar

StartChar: quotesingle
Encoding: 39 39 3
Width: 1024
VWidth: 0
Flags: W
HStem: 640 256<384 640>
VStem: 384 256<640 896>
LayerCount: 2
Fore
SplineSet
384 640 m 1
 384 896 l 1
 640 896 l 1
 640 640 l 1
 384 640 l 1
EndSplineSet
Validated: 1
EndChar

StartChar: h
Encoding: 104 104 4
Width: 1024
VWidth: 0
Flags: W
HStem: 0 21G<0 256 640 896> 384 128<256 640> 876 20G<0 256 640 896>
VStem: 0 256<0 384 512 896> 640 256<0 384 512 896>
LayerCount: 2
Fore
SplineSet
0 0 m 1
 0 896 l 1
 256 896 l 1
 256 512 l 1
 640 512 l 1
 640 896 l 1
 896 896 l 1
 896 0 l 1
 640 0 l 1
 640 384 l 1
 256 384 l 1
 256 0 l 1
 0 0 l 1
EndSplineSet
Validated: 1
EndChar

StartChar: n
Encoding: 110 110 5
Width: 1024
VWidth: 0
Flags: W
HStem: 0 21G<0 256 640 896> 876 20G<0 256 640 896>
VStem: 0 256<0 384 768 896> 640 256<0 128 512 896>
LayerCount: 2
Fore
SplineSet
0 0 m 1
 0 896 l 1
 256 896 l 1
 256 768 l 1
 384 768 l 1
 384 640 l 1
 512 640 l 1
 512 512 l 1
 640 512 l 1
 640 896 l 1
 896 896 l 1
 896 0 l 1
 640 0 l 1
 640 128 l 1
 512 128 l 1
 512 256 l 1
 384 256 l 1
 384 384 l 1
 256 384 l 1
 256 0 l 1
 0 0 l 1
EndSplineSet
Validated: 1
EndChar

StartChar: j
Encoding: 106 106 6
Width: 1024
VWidth: 0
Flags: W
HStem: 0 128<256 640> 128 128<0 128> 876 20G<640 896>
VStem: 640 256<128 896>
LayerCount: 2
Fore
SplineSet
640 128 m 1xb0
 640 896 l 1
 896 896 l 1
 896 128 l 1
 768 128 l 1x70
 768 0 l 1
 128 0 l 1xb0
 128 128 l 1
 0 128 l 1
 0 256 l 1
 256 256 l 1x70
 256 128 l 1
 640 128 l 1xb0
EndSplineSet
Validated: 1
EndChar

StartChar: p
Encoding: 112 112 7
Width: 1024
VWidth: 0
Flags: W
HStem: 0 21G<0 256> 0 21G<0 256> 384 128<256 640> 768 128<256 640>
VStem: 0 256<0 384 512 768> 640 256<512 768>
LayerCount: 2
Fore
SplineSet
0 0 m 1xbc
 0 896 l 1
 768 896 l 1
 768 768 l 1
 896 768 l 1
 896 512 l 1
 768 512 l 1
 768 384 l 1
 256 384 l 1
 256 0 l 1
 0 0 l 1xbc
640 512 m 1
 640 768 l 1
 256 768 l 1
 256 512 l 1
 640 512 l 1
EndSplineSet
Validated: 1
EndChar

StartChar: q
Encoding: 113 113 8
Width: 1024
VWidth: 0
Flags: W
HStem: 0 128<256 512 768 896> 256 128<384 512> 768 128<256 640>
VStem: 0 256<128 768> 640 256<0 128 384 768>
LayerCount: 2
Fore
SplineSet
128 768 m 1
 128 896 l 1
 768 896 l 1
 768 768 l 1
 896 768 l 1
 896 256 l 1
 768 256 l 1
 768 128 l 1
 896 128 l 1
 896 0 l 1
 640 0 l 1
 640 128 l 1
 512 128 l 1
 512 256 l 1
 384 256 l 1
 384 384 l 1
 640 384 l 1
 640 768 l 1
 256 768 l 1
 256 128 l 1
 512 128 l 1
 512 0 l 1
 128 0 l 1
 128 128 l 1
 0 128 l 1
 0 768 l 1
 128 768 l 1
EndSplineSet
Validated: 5
EndChar

StartChar: k
Encoding: 107 107 9
Width: 1024
VWidth: 0
Flags: W
HStem: 0 128<768 896> 384 128<256 384> 768 128<768 896>
VStem: 0 256<0 384 512 896> 384 256<256 384 512 640> 512 256<128 256 640 768> 640 256<0 128 768 896>
CounterMasks: 1 e0
LayerCount: 2
Fore
SplineSet
0 0 m 1xf8
 0 896 l 1
 256 896 l 1
 256 512 l 1
 384 512 l 1
 384 640 l 1xf8
 512 640 l 1
 512 768 l 1xf4
 640 768 l 1
 640 896 l 1
 896 896 l 1
 896 768 l 1xf2
 768 768 l 1
 768 640 l 1xf4
 640 640 l 1
 640 512 l 1xf8
 512 512 l 1
 512 384 l 1xf4
 640 384 l 1
 640 256 l 1xf8
 768 256 l 1
 768 128 l 1xf4
 896 128 l 1
 896 0 l 1
 640 0 l 1
 640 128 l 1xf2
 512 128 l 1
 512 256 l 1xf4
 384 256 l 1
 384 384 l 1
 256 384 l 1
 256 0 l 1
 0 0 l 1xf8
EndSplineSet
Validated: 1
EndChar

StartChar: g
Encoding: 103 103 10
Width: 1024
VWidth: 0
Flags: W
HStem: 0 128<256 640> 256 128<512 640> 640 128<768 896> 768 128<256 640>
VStem: 0 256<128 768> 640 256<128 256 640 768>
LayerCount: 2
Fore
SplineSet
128 768 m 1xdc
 128 896 l 1
 768 896 l 1xdc
 768 768 l 1
 896 768 l 1
 896 640 l 1
 640 640 l 1xec
 640 768 l 1
 256 768 l 1
 256 128 l 1
 640 128 l 1
 640 256 l 1
 512 256 l 1
 512 384 l 1
 896 384 l 1
 896 0 l 1
 128 0 l 1
 128 128 l 1
 0 128 l 1
 0 768 l 1
 128 768 l 1xdc
EndSplineSet
Validated: 1
EndChar

StartChar: u
Encoding: 117 117 11
Width: 1024
VWidth: 0
Flags: W
HStem: 0 128<256 640> 876 20G<0 256 640 896>
VStem: 0 256<128 896> 640 256<128 896>
LayerCount: 2
Fore
SplineSet
0 128 m 1
 0 896 l 1
 256 896 l 1
 256 128 l 1
 640 128 l 1
 640 896 l 1
 896 896 l 1
 896 128 l 1
 768 128 l 1
 768 0 l 1
 128 0 l 1
 128 128 l 1
 0 128 l 1
EndSplineSet
Validated: 1
EndChar

StartChar: glyph12
Encoding: 256 9632 12
Width: 1024
VWidth: 0
Flags: W
HStem: 0 21G<0 896> 0 21G<0 896> 876 20G<0 896>
VStem: 0 896<0 896>
LayerCount: 2
Fore
SplineSet
0 0 m 1xb0
 0 896 l 1
 896 896 l 1
 896 0 l 1
 0 0 l 1xb0
EndSplineSet
Validated: 1
EndChar

StartChar: t
Encoding: 116 116 13
Width: 1024
VWidth: 0
Flags: W
HStem: 0 21G<384 640> 0 21G<384 640> 768 128<128 384 640 896>
VStem: 384 256<0 768>
LayerCount: 2
Fore
SplineSet
128 768 m 1xb0
 128 896 l 1
 896 896 l 1
 896 768 l 1
 640 768 l 1
 640 0 l 1
 384 0 l 1
 384 768 l 1
 128 768 l 1xb0
EndSplineSet
Validated: 1
EndChar

StartChar: f
Encoding: 102 102 14
Width: 1024
VWidth: 0
Flags: W
HStem: 0 21G<0 256> 0 21G<0 256> 384 128<256 640> 768 128<256 896>
VStem: 0 256<0 384 512 768>
LayerCount: 2
Fore
SplineSet
0 0 m 1xb8
 0 896 l 1
 896 896 l 1
 896 768 l 1
 256 768 l 1
 256 512 l 1
 640 512 l 1
 640 384 l 1
 256 384 l 1
 256 0 l 1
 0 0 l 1xb8
EndSplineSet
Validated: 1
EndChar

StartChar: r
Encoding: 114 114 15
Width: 1024
VWidth: 0
Flags: W
HStem: 0 128<768 896> 384 128<256 384> 768 128<256 640>
VStem: 0 256<0 384 512 768> 640 256<0 128 512 768>
CounterMasks: 1 e0
LayerCount: 2
Fore
SplineSet
0 0 m 1
 0 896 l 1
 768 896 l 1
 768 768 l 1
 896 768 l 1
 896 512 l 1
 768 512 l 1
 768 384 l 1
 640 384 l 1
 640 256 l 1
 768 256 l 1
 768 128 l 1
 896 128 l 1
 896 0 l 1
 640 0 l 1
 640 128 l 1
 512 128 l 1
 512 256 l 1
 384 256 l 1
 384 384 l 1
 256 384 l 1
 256 0 l 1
 0 0 l 1
640 512 m 1
 640 768 l 1
 256 768 l 1
 256 512 l 1
 640 512 l 1
EndSplineSet
Validated: 1
EndChar

StartChar: d
Encoding: 100 100 16
Width: 1024
VWidth: 0
Flags: W
HStem: 0 128<256 640> 768 128<256 640>
VStem: 0 256<128 768> 640 256<128 768>
LayerCount: 2
Fore
SplineSet
0 0 m 1
 0 896 l 1
 768 896 l 1
 768 768 l 1
 896 768 l 1
 896 128 l 1
 768 128 l 1
 768 0 l 1
 0 0 l 1
640 128 m 1
 640 768 l 1
 256 768 l 1
 256 128 l 1
 640 128 l 1
EndSplineSet
Validated: 1
EndChar

StartChar: e
Encoding: 101 101 17
Width: 1024
VWidth: 0
Flags: W
HStem: 0 128<256 896> 384 128<256 640> 768 128<256 896>
VStem: 0 256<128 384 512 768>
CounterMasks: 1 e0
LayerCount: 2
Fore
SplineSet
0 0 m 1
 0 896 l 1
 896 896 l 1
 896 768 l 1
 256 768 l 1
 256 512 l 1
 640 512 l 1
 640 384 l 1
 256 384 l 1
 256 128 l 1
 896 128 l 1
 896 0 l 1
 0 0 l 1
EndSplineSet
Validated: 1
EndChar

StartChar: s
Encoding: 115 115 18
Width: 1024
VWidth: 0
Flags: W
HStem: 0 128<256 640> 128 128<0 128> 384 128<256 640> 640 128<768 896> 768 128<256 640>
VStem: 0 256<128 256 512 768> 640 256<128 384 640 768>
LayerCount: 2
Fore
SplineSet
128 768 m 1xae
 128 896 l 1
 768 896 l 1xae
 768 768 l 1
 896 768 l 1
 896 640 l 1
 640 640 l 1x36
 640 768 l 1
 256 768 l 1
 256 512 l 1
 768 512 l 1
 768 384 l 1
 896 384 l 1
 896 128 l 1
 768 128 l 1x6e
 768 0 l 1
 128 0 l 1xa6
 128 128 l 1
 0 128 l 1
 0 256 l 1
 256 256 l 1x66
 256 128 l 1
 640 128 l 1
 640 384 l 1
 128 384 l 1
 128 512 l 1
 0 512 l 1
 0 768 l 1
 128 768 l 1xae
EndSplineSet
Validated: 1
EndChar

StartChar: brokenbar
Encoding: 166 166 19
Width: 1024
VWidth: 0
Flags: W
HStem: 0 256<256 384 640 768> 0 128<128 256> 384 128<128 384> 876 20G<256 640>
VStem: 256 128<128 256> 384 256<256 384 512 640> 640 128<0 128>
LayerCount: 2
Fore
SplineSet
256 640 m 1xb8
 256 896 l 1
 640 896 l 1xba
 640 256 l 1xb4
 768 256 l 1
 768 0 l 1
 640 0 l 1xb2
 640 128 l 1
 512 128 l 1x72
 512 256 l 1
 384 256 l 1xba
 384 384 l 1
 128 384 l 1
 128 512 l 1
 384 512 l 1
 384 640 l 1xb4
 256 640 l 1xb8
256 128 m 1x78
 256 256 l 1
 384 256 l 1xb8
 384 0 l 1xb4
 128 0 l 1
 128 128 l 1
 256 128 l 1x78
EndSplineSet
Validated: 5
EndChar

StartChar: b
Encoding: 98 98 20
Width: 1024
VWidth: 0
Flags: W
HStem: 0 128<256 640> 384 128<256 640> 768 128<256 640>
VStem: 0 256<128 384 512 768> 640 256<128 384 512 768>
CounterMasks: 1 e0
LayerCount: 2
Fore
SplineSet
0 0 m 1
 0 896 l 1
 768 896 l 1
 768 768 l 1
 896 768 l 1
 896 512 l 1
 768 512 l 1
 768 384 l 1
 896 384 l 1
 896 128 l 1
 768 128 l 1
 768 0 l 1
 0 0 l 1
640 512 m 1
 640 768 l 1
 256 768 l 1
 256 512 l 1
 640 512 l 1
640 128 m 1
 640 384 l 1
 256 384 l 1
 256 128 l 1
 640 128 l 1
EndSplineSet
Validated: 1
EndChar

StartChar: I
Encoding: 73 73 21
Width: 1024
VWidth: 0
Flags: W
HStem: 0 128<256 384 640 768> 768 128<256 384 640 768>
VStem: 384 256<128 768>
LayerCount: 2
Fore
SplineSet
256 768 m 1
 256 896 l 1
 768 896 l 1
 768 768 l 1
 640 768 l 1
 640 128 l 1
 768 128 l 1
 768 0 l 1
 256 0 l 1
 256 128 l 1
 384 128 l 1
 384 768 l 1
 256 768 l 1
EndSplineSet
Validated: 1
EndChar

StartChar: C
Encoding: 67 67 22
Width: 1024
VWidth: 0
Flags: W
HStem: 0 128<256 640> 128 128<768 896> 640 128<768 896> 768 128<256 640>
VStem: 0 256<128 768> 640 256<128 256 640 768>
LayerCount: 2
Fore
SplineSet
128 768 m 1x5c
 128 896 l 1
 768 896 l 1x5c
 768 768 l 1
 896 768 l 1
 896 640 l 1
 640 640 l 1x2c
 640 768 l 1
 256 768 l 1
 256 128 l 1
 640 128 l 1x9c
 640 256 l 1
 896 256 l 1
 896 128 l 1
 768 128 l 1x4c
 768 0 l 1
 128 0 l 1x8c
 128 128 l 1
 0 128 l 1
 0 768 l 1
 128 768 l 1x5c
EndSplineSet
Validated: 1
EndChar

StartChar: B
Encoding: 66 66 23
Width: 1024
VWidth: 0
Flags: W
HStem: 0 128<256 640> 384 128<256 640> 768 128<256 640>
VStem: 0 256<128 384 512 768> 640 256<128 384 512 768>
CounterMasks: 1 e0
LayerCount: 2
Fore
SplineSet
0 0 m 1
 0 896 l 1
 768 896 l 1
 768 768 l 1
 896 768 l 1
 896 512 l 1
 768 512 l 1
 768 384 l 1
 896 384 l 1
 896 128 l 1
 768 128 l 1
 768 0 l 1
 0 0 l 1
640 512 m 1
 640 768 l 1
 256 768 l 1
 256 512 l 1
 640 512 l 1
640 128 m 1
 640 384 l 1
 256 384 l 1
 256 128 l 1
 640 128 l 1
EndSplineSet
Validated: 1
EndChar

StartChar: H
Encoding: 72 72 24
Width: 1024
VWidth: 0
Flags: W
HStem: 0 21G<0 256 640 896> 0 21G<0 256 640 896> 384 128<256 640> 876 20G<0 256 640 896> 876 20G<0 256 640 896>
VStem: 0 256<0 384 512 896> 640 256<0 384 512 896>
LayerCount: 2
Fore
SplineSet
0 0 m 1xb6
 0 896 l 1
 256 896 l 1
 256 512 l 1
 640 512 l 1
 640 896 l 1
 896 896 l 1
 896 0 l 1
 640 0 l 1
 640 384 l 1
 256 384 l 1
 256 0 l 1
 0 0 l 1xb6
EndSplineSet
Validated: 1
EndChar

StartChar: c
Encoding: 99 99 25
Width: 1024
VWidth: 0
Flags: W
HStem: 0 128<256 640> 128 128<768 896> 640 128<768 896> 768 128<256 640>
VStem: 0 256<128 768> 640 256<128 256 640 768>
LayerCount: 2
Fore
SplineSet
128 768 m 1x5c
 128 896 l 1
 768 896 l 1x5c
 768 768 l 1
 896 768 l 1
 896 640 l 1
 640 640 l 1x2c
 640 768 l 1
 256 768 l 1
 256 128 l 1
 640 128 l 1x9c
 640 256 l 1
 896 256 l 1
 896 128 l 1
 768 128 l 1x4c
 768 0 l 1
 128 0 l 1x8c
 128 128 l 1
 0 128 l 1
 0 768 l 1
 128 768 l 1x5c
EndSplineSet
Validated: 1
EndChar

StartChar: yen
Encoding: 165 165 26
Width: 1024
VWidth: 0
Flags: W
HStem: 0 128<384 512> 384 128<256 512> 876 20G<384 768> 876 20G<384 768>
VStem: 384 384<0 128 640 896> 512 256<128 384 512 640>
LayerCount: 2
Fore
SplineSet
384 640 m 1xe8
 384 896 l 1
 768 896 l 1
 768 0 l 1
 384 0 l 1
 384 128 l 1xe8
 512 128 l 1
 512 384 l 1
 256 384 l 1
 256 512 l 1
 512 512 l 1
 512 640 l 1xe4
 384 640 l 1xe8
EndSplineSet
Validated: 1
EndChar

StartChar: colon
Encoding: 58 58 27
Width: 1024
VWidth: 0
Flags: W
HStem: 128 256<384 640> 512 256<384 640>
VStem: 384 256<128 384 512 768>
LayerCount: 2
Fore
SplineSet
384 512 m 1
 384 768 l 1
 640 768 l 1
 640 512 l 1
 384 512 l 1
384 128 m 1
 384 384 l 1
 640 384 l 1
 640 128 l 1
 384 128 l 1
EndSplineSet
Validated: 1
EndChar

StartChar: at
Encoding: 64 64 28
Width: 1024
VWidth: 0
Flags: W
HStem: 0 128<256 640> 768 128<256 640>
VStem: 0 256<128 768> 512 384<256 640>
LayerCount: 2
Fore
SplineSet
128 768 m 1
 128 896 l 1
 768 896 l 1
 768 768 l 1
 896 768 l 1
 896 256 l 1
 512 256 l 1
 512 640 l 1
 640 640 l 1
 640 768 l 1
 256 768 l 1
 256 128 l 1
 640 128 l 1
 640 0 l 1
 128 0 l 1
 128 128 l 1
 0 128 l 1
 0 768 l 1
 128 768 l 1
EndSplineSet
Validated: 1
EndChar

StartChar: F
Encoding: 70 70 29
Width: 1024
VWidth: 0
Flags: W
HStem: 0 21G<0 256> 0 21G<0 256> 384 128<256 640> 768 128<256 896>
VStem: 0 256<0 384 512 768>
LayerCount: 2
Fore
SplineSet
0 0 m 1xb8
 0 896 l 1
 896 896 l 1
 896 768 l 1
 256 768 l 1
 256 512 l 1
 640 512 l 1
 640 384 l 1
 256 384 l 1
 256 0 l 1
 0 0 l 1xb8
EndSplineSet
Validated: 1
EndChar

StartChar: G
Encoding: 71 71 30
Width: 1024
VWidth: 0
Flags: W
HStem: 0 128<256 640> 256 128<512 640> 640 128<768 896> 768 128<256 640>
VStem: 0 256<128 768> 640 256<128 256 640 768>
LayerCount: 2
Fore
SplineSet
128 768 m 1xdc
 128 896 l 1
 768 896 l 1xdc
 768 768 l 1
 896 768 l 1
 896 640 l 1
 640 640 l 1xec
 640 768 l 1
 256 768 l 1
 256 128 l 1
 640 128 l 1
 640 256 l 1
 512 256 l 1
 512 384 l 1
 896 384 l 1
 896 0 l 1
 128 0 l 1
 128 128 l 1
 0 128 l 1
 0 768 l 1
 128 768 l 1xdc
EndSplineSet
Validated: 1
EndChar

StartChar: A
Encoding: 65 65 31
Width: 1024
VWidth: 0
Flags: W
HStem: 0 21G<0 256 640 896> 0 21G<0 256 640 896> 256 128<256 640> 640 256<256 384 512 640> 768 128<384 512>
VStem: 0 256<0 256 384 640> 640 256<0 256 384 640>
LayerCount: 2
Fore
SplineSet
256 768 m 1x2e
 256 896 l 1
 640 896 l 1x36
 640 768 l 1
 768 768 l 1x2e
 768 640 l 1
 896 640 l 1
 896 0 l 1
 640 0 l 1
 640 256 l 1
 256 256 l 1
 256 0 l 1
 0 0 l 1
 0 640 l 1
 128 640 l 1xb6
 128 768 l 1
 256 768 l 1x2e
512 640 m 1
 512 768 l 1
 384 768 l 1x2e
 384 640 l 1
 256 640 l 1
 256 384 l 1
 640 384 l 1
 640 640 l 1
 512 640 l 1
EndSplineSet
Validated: 1
EndChar

StartChar: semicolon
Encoding: 59 59 32
Width: 1024
VWidth: 0
Flags: W
HStem: 0 128<256 384> 640 256<256 640>
VStem: 256 384<256 512 640 896>
LayerCount: 2
Fore
SplineSet
256 640 m 1
 256 896 l 1
 640 896 l 1
 640 640 l 1
 256 640 l 1
256 256 m 1
 256 512 l 1
 640 512 l 1
 640 128 l 1
 512 128 l 1
 512 0 l 1
 256 0 l 1
 256 128 l 1
 384 128 l 1
 384 256 l 1
 256 256 l 1
EndSplineSet
Validated: 1
EndChar

StartChar: currency
Encoding: 164 164 33
Width: 1024
VWidth: 0
Flags: W
HStem: 0 128<128 256 640 768> 384 128<128 256 640 768> 640 256<256 384 512 640>
VStem: 0 128<256 384> 256 128<128 256> 512 128<128 256> 768 128<512 640>
LayerCount: 2
Fore
SplineSet
256 640 m 1
 256 896 l 1
 640 896 l 1
 640 640 l 1
 512 640 l 1
 512 512 l 1
 768 512 l 1
 768 640 l 1
 896 640 l 1
 896 384 l 1
 640 384 l 1
 640 128 l 1
 768 128 l 1
 768 0 l 1
 512 0 l 1
 512 256 l 1
 384 256 l 1
 384 0 l 1
 128 0 l 1
 128 128 l 1
 256 128 l 1
 256 384 l 1
 128 384 l 1
 128 256 l 1
 0 256 l 1
 0 512 l 1
 384 512 l 1
 384 640 l 1
 256 640 l 1
EndSplineSet
Validated: 1
EndChar

StartChar: equal
Encoding: 61 61 34
Width: 1024
VWidth: 0
Flags: W
HStem: 256 128<128 768> 512 128<128 768>
LayerCount: 2
Fore
SplineSet
128 512 m 1
 128 640 l 1
 768 640 l 1
 768 512 l 1
 128 512 l 1
128 256 m 1
 128 384 l 1
 768 384 l 1
 768 256 l 1
 128 256 l 1
EndSplineSet
Validated: 1
EndChar

StartChar: K
Encoding: 75 75 35
Width: 1024
VWidth: 0
Flags: W
HStem: 0 128<768 896> 384 128<256 384> 768 128<768 896>
VStem: 0 256<0 384 512 896> 384 256<256 384 512 640> 512 256<128 256 640 768> 640 256<0 128 768 896>
CounterMasks: 1 e0
LayerCount: 2
Fore
SplineSet
0 0 m 1xf8
 0 896 l 1
 256 896 l 1
 256 512 l 1
 384 512 l 1
 384 640 l 1xf8
 512 640 l 1
 512 768 l 1xf4
 640 768 l 1
 640 896 l 1
 896 896 l 1
 896 768 l 1xf2
 768 768 l 1
 768 640 l 1xf4
 640 640 l 1
 640 512 l 1xf8
 512 512 l 1
 512 384 l 1xf4
 640 384 l 1
 640 256 l 1xf8
 768 256 l 1
 768 128 l 1xf4
 896 128 l 1
 896 0 l 1
 640 0 l 1
 640 128 l 1xf2
 512 128 l 1
 512 256 l 1xf4
 384 256 l 1
 384 384 l 1
 256 384 l 1
 256 0 l 1
 0 0 l 1xf8
EndSplineSet
Validated: 1
EndChar

StartChar: one
Encoding: 49 49 36
Width: 1024
VWidth: 0
Flags: W
HStem: 0 128<256 384 640 768> 640 128<256 384> 876 20G<384 640> 876 20G<384 640>
VStem: 384 256<128 640 768 896>
LayerCount: 2
Fore
SplineSet
384 768 m 1xe8
 384 896 l 1
 640 896 l 1
 640 128 l 1
 768 128 l 1
 768 0 l 1
 256 0 l 1
 256 128 l 1
 384 128 l 1
 384 640 l 1
 256 640 l 1
 256 768 l 1
 384 768 l 1xe8
EndSplineSet
Validated: 1
EndChar

StartChar: glyph37
Encoding: 257 9679 37
Width: 1024
VWidth: 0
Flags: W
HStem: 0 640<128 640>
LayerCount: 2
Fore
SplineSet
128 512 m 1
 128 640 l 1
 640 640 l 1
 640 512 l 1
 768 512 l 1
 768 128 l 1
 640 128 l 1
 640 0 l 1
 128 0 l 1
 128 128 l 1
 0 128 l 1
 0 512 l 1
 128 512 l 1
EndSplineSet
Validated: 1
EndChar

StartChar: zero
Encoding: 48 48 38
Width: 1024
VWidth: 0
Flags: W
HStem: 0 128<256 640> 768 128<256 640>
VStem: 0 256<128 768> 640 256<128 768>
LayerCount: 2
Fore
SplineSet
128 768 m 1
 128 896 l 1
 768 896 l 1
 768 768 l 1
 896 768 l 1
 896 128 l 1
 768 128 l 1
 768 0 l 1
 128 0 l 1
 128 128 l 1
 0 128 l 1
 0 768 l 1
 128 768 l 1
640 128 m 1
 640 768 l 1
 256 768 l 1
 256 128 l 1
 640 128 l 1
EndSplineSet
Validated: 1
EndChar

StartChar: J
Encoding: 74 74 39
Width: 1024
VWidth: 0
Flags: W
HStem: 0 128<256 640> 128 128<0 128> 876 20G<640 896> 876 20G<640 896>
VStem: 640 256<128 896>
LayerCount: 2
Fore
SplineSet
640 128 m 1x88
 640 896 l 1
 896 896 l 1
 896 128 l 1
 768 128 l 1x68
 768 0 l 1
 128 0 l 1x88
 128 128 l 1
 0 128 l 1
 0 256 l 1
 256 256 l 1x48
 256 128 l 1
 640 128 l 1x88
EndSplineSet
Validated: 1
EndChar

StartChar: less
Encoding: 60 60 40
Width: 1024
VWidth: 0
Flags: W
HStem: 128 128<640 768> 384 128<256 384> 640 128<640 768>
VStem: 384 256<256 384 512 640> 512 256<128 256 640 768>
CounterMasks: 1 e0
LayerCount: 2
Fore
SplineSet
512 640 m 1xe8
 512 768 l 1
 768 768 l 1
 768 640 l 1xe8
 640 640 l 1
 640 512 l 1xf0
 512 512 l 1
 512 384 l 1xe8
 640 384 l 1
 640 256 l 1xf0
 768 256 l 1
 768 128 l 1
 512 128 l 1
 512 256 l 1xe8
 384 256 l 1
 384 384 l 1
 256 384 l 1
 256 512 l 1
 384 512 l 1
 384 640 l 1xf0
 512 640 l 1xe8
EndSplineSet
Validated: 1
EndChar

StartChar: exclamdown
Encoding: 161 161 41
Width: 1024
VWidth: 0
Flags: W
HStem: 0 128<640 768> 768 128<640 768>
VStem: 0 256<0 896> 384 256<128 768> 768 256<128 768>
CounterMasks: 1 38
LayerCount: 2
Fore
SplineSet
0 0 m 1
 0 896 l 1
 256 896 l 1
 256 0 l 1
 0 0 l 1
512 768 m 1
 512 896 l 1
 896 896 l 1
 896 768 l 1
 1024 768 l 1
 1024 128 l 1
 896 128 l 1
 896 0 l 1
 512 0 l 1
 512 128 l 1
 384 128 l 1
 384 768 l 1
 512 768 l 1
768 128 m 1
 768 768 l 1
 640 768 l 1
 640 128 l 1
 768 128 l 1
EndSplineSet
Validated: 1
EndChar

StartChar: Y
Encoding: 89 89 42
Width: 1024
VWidth: 0
Flags: W
HStem: 0 21G<384 640> 0 21G<384 640> 876 20G<128 384 640 896> 876 20G<128 384 640 896>
VStem: 128 256<512 896> 384 256<0 384> 640 256<512 896>
LayerCount: 2
Fore
SplineSet
128 512 m 1xa8
 128 896 l 1
 384 896 l 1
 384 512 l 1
 640 512 l 1
 640 896 l 1
 896 896 l 1
 896 512 l 1xaa
 768 512 l 1
 768 384 l 1
 640 384 l 1
 640 0 l 1
 384 0 l 1
 384 384 l 1xa4
 256 384 l 1
 256 512 l 1
 128 512 l 1xa8
EndSplineSet
Validated: 1
EndChar

StartChar: sterling
Encoding: 163 163 43
Width: 1024
VWidth: 0
Flags: W
HStem: 0 128<640 768> 384 128<640 896> 876 20G<384 768> 876 20G<384 768>
VStem: 384 384<0 128 640 896> 384 256<128 384 512 640>
LayerCount: 2
Fore
SplineSet
384 0 m 1xe8
 384 896 l 1
 768 896 l 1
 768 640 l 1xe8
 640 640 l 1
 640 512 l 1
 896 512 l 1
 896 384 l 1
 640 384 l 1
 640 128 l 1xe4
 768 128 l 1
 768 0 l 1
 384 0 l 1xe8
EndSplineSet
Validated: 1
EndChar

StartChar: L
Encoding: 76 76 44
Width: 1024
VWidth: 0
Flags: W
HStem: 0 128<256 768> 876 20G<0 256> 876 20G<0 256>
VStem: 0 256<128 896>
LayerCount: 2
Fore
SplineSet
0 0 m 1xd0
 0 896 l 1
 256 896 l 1
 256 128 l 1
 768 128 l 1
 768 0 l 1
 0 0 l 1xd0
EndSplineSet
Validated: 1
EndChar

StartChar: greater
Encoding: 62 62 45
Width: 1024
VWidth: 0
Flags: W
HStem: 128 128<256 384> 384 128<640 768> 640 128<256 384>
VStem: 256 256<128 256 640 768> 384 256<256 384 512 640>
CounterMasks: 1 e0
LayerCount: 2
Fore
SplineSet
256 640 m 1xf0
 256 768 l 1
 512 768 l 1
 512 640 l 1xf0
 640 640 l 1
 640 512 l 1
 768 512 l 1
 768 384 l 1
 640 384 l 1
 640 256 l 1xe8
 512 256 l 1
 512 128 l 1
 256 128 l 1
 256 256 l 1xf0
 384 256 l 1
 384 384 l 1xe8
 512 384 l 1
 512 512 l 1xf0
 384 512 l 1
 384 640 l 1xe8
 256 640 l 1xf0
EndSplineSet
Validated: 1
EndChar

StartChar: multiply
Encoding: 215 215 46
Width: 1024
VWidth: 0
Flags: W
HStem: 128 256<256 384 640 768> 128 128<128 256 768 896> 512 256<256 384 640 768> 640 128<128 256 768 896>
VStem: 128 256<128 256 640 768> 640 256<128 256 640 768>
LayerCount: 2
Fore
SplineSet
128 640 m 1x1c
 128 768 l 1x1c
 384 768 l 1x2c
 384 640 l 1
 640 640 l 1x1c
 640 768 l 1x2c
 896 768 l 1
 896 640 l 1
 768 640 l 1x1c
 768 512 l 1
 640 512 l 1
 640 384 l 1
 768 384 l 1xac
 768 256 l 1
 896 256 l 1
 896 128 l 1x4c
 640 128 l 1x8c
 640 256 l 1
 384 256 l 1x4c
 384 128 l 1x8c
 128 128 l 1
 128 256 l 1
 256 256 l 1x4c
 256 384 l 1
 384 384 l 1
 384 512 l 1
 256 512 l 1xac
 256 640 l 1
 128 640 l 1x1c
EndSplineSet
Validated: 1
EndChar

StartChar: question
Encoding: 63 63 47
Width: 1024
VWidth: 0
Flags: W
HStem: 0 128<384 640> 640 128<128 256 768 896> 768 128<384 640>
VStem: 384 256<0 128 256 512>
LayerCount: 2
Fore
SplineSet
256 768 m 1xd0
 256 896 l 1
 768 896 l 1xb0
 768 768 l 1
 896 768 l 1
 896 640 l 1
 768 640 l 1
 768 512 l 1
 640 512 l 1
 640 256 l 1
 384 256 l 1
 384 512 l 1
 512 512 l 1
 512 640 l 1
 640 640 l 1xd0
 640 768 l 1
 384 768 l 1xb0
 384 640 l 1
 128 640 l 1
 128 768 l 1
 256 768 l 1xd0
384 0 m 1
 384 128 l 1
 640 128 l 1
 640 0 l 1
 384 0 l 1
EndSplineSet
Validated: 1
EndChar

StartChar: M
Encoding: 77 77 48
Width: 1024
VWidth: 0
Flags: W
HStem: 0 21G<0 256 640 896> 0 21G<0 256 640 896> 512 256<256 384 512 640> 876 20G<0 256 640 896> 876 20G<0 256 640 896>
VStem: 0 256<0 512 768 896> 384 128<384 512> 640 256<0 512 768 896>
CounterMasks: 1 07
LayerCount: 2
Fore
SplineSet
0 0 m 1xb7
 0 896 l 1
 256 896 l 1
 256 768 l 1
 384 768 l 1
 384 640 l 1
 512 640 l 1
 512 768 l 1
 640 768 l 1
 640 896 l 1
 896 896 l 1
 896 0 l 1
 640 0 l 1
 640 512 l 1
 512 512 l 1
 512 384 l 1
 384 384 l 1
 384 512 l 1
 256 512 l 1
 256 0 l 1
 0 0 l 1xb7
EndSplineSet
Validated: 1
EndChar

StartChar: cent
Encoding: 162 162 49
Width: 1024
VWidth: 0
Flags: W
HStem: 0 256<256 384 640 768> 0 128<768 896> 384 128<640 896> 876 20G<384 768> 876 20G<384 768>
VStem: 256 128<0 128> 384 256<256 384 512 640> 640 128<128 256>
LayerCount: 2
Fore
SplineSet
384 256 m 1xa2
 384 896 l 1xb2
 768 896 l 1
 768 640 l 1xb1
 640 640 l 1
 640 512 l 1
 896 512 l 1
 896 384 l 1
 640 384 l 1
 640 256 l 1
 512 256 l 1xb2
 512 128 l 1
 384 128 l 1x64
 384 0 l 1
 256 0 l 1
 256 256 l 1xa4
 384 256 l 1xa2
640 0 m 1xa1
 640 256 l 1xa2
 768 256 l 1xa1
 768 128 l 1
 896 128 l 1
 896 0 l 1x61
 640 0 l 1xa1
EndSplineSet
Validated: 5
EndChar

StartChar: X
Encoding: 88 88 50
Width: 1024
VWidth: 0
Flags: W
HStem: 0 256<0 128 768 896> 384 128<384 512> 640 256<0 128 768 896>
VStem: 0 256<0 256 640 896> 128 256<256 384 512 640> 512 256<256 384 512 640> 640 256<0 256 640 896>
CounterMasks: 1 e0
LayerCount: 2
Fore
SplineSet
0 640 m 1xf0
 0 896 l 1
 256 896 l 1
 256 640 l 1xf0
 384 640 l 1
 384 512 l 1
 512 512 l 1
 512 640 l 1xec
 640 640 l 1
 640 896 l 1
 896 896 l 1
 896 640 l 1xe2
 768 640 l 1
 768 512 l 1xe4
 640 512 l 1
 640 384 l 1xe2
 768 384 l 1
 768 256 l 1xe4
 896 256 l 1
 896 0 l 1
 640 0 l 1
 640 256 l 1xe2
 512 256 l 1
 512 384 l 1
 384 384 l 1
 384 256 l 1xec
 256 256 l 1
 256 0 l 1
 0 0 l 1
 0 256 l 1xf0
 128 256 l 1
 128 384 l 1xe8
 256 384 l 1
 256 512 l 1xf0
 128 512 l 1
 128 640 l 1xe8
 0 640 l 1xf0
EndSplineSet
Validated: 1
EndChar

StartChar: bracketleft
Encoding: 91 91 51
Width: 1024
VWidth: 0
Flags: W
HStem: 0 128<512 640> 768 128<512 640>
VStem: 256 256<128 768>
LayerCount: 2
Fore
SplineSet
256 0 m 1
 256 896 l 1
 640 896 l 1
 640 768 l 1
 512 768 l 1
 512 128 l 1
 640 128 l 1
 640 0 l 1
 256 0 l 1
EndSplineSet
Validated: 1
EndChar

StartChar: U
Encoding: 85 85 52
Width: 1024
VWidth: 0
Flags: W
HStem: 0 128<256 640> 876 20G<0 256 640 896> 876 20G<0 256 640 896>
VStem: 0 256<128 896> 640 256<128 896>
LayerCount: 2
Fore
SplineSet
0 128 m 1xd8
 0 896 l 1
 256 896 l 1
 256 128 l 1
 640 128 l 1
 640 896 l 1
 896 896 l 1
 896 128 l 1
 768 128 l 1
 768 0 l 1
 128 0 l 1
 128 128 l 1
 0 128 l 1xd8
EndSplineSet
Validated: 1
EndChar

StartChar: four
Encoding: 52 52 53
Width: 1024
VWidth: 0
Flags: W
HStem: 0 21G<512 768> 0 21G<512 768> 384 128<256 512 768 896> 876 20G<0 256 512 768> 876 20G<0 256 512 768>
VStem: 0 256<512 896> 512 256<0 384 512 896>
LayerCount: 2
Fore
SplineSet
0 384 m 1xb6
 0 896 l 1
 256 896 l 1
 256 512 l 1
 512 512 l 1
 512 896 l 1
 768 896 l 1
 768 512 l 1
 896 512 l 1
 896 384 l 1
 768 384 l 1
 768 0 l 1
 512 0 l 1
 512 384 l 1
 0 384 l 1xb6
EndSplineSet
Validated: 1
EndChar

StartChar: period
Encoding: 46 46 54
Width: 1024
VWidth: 0
Flags: W
HStem: 0 256<256 640>
LayerCount: 2
Fore
SplineSet
256 0 m 1
 256 256 l 1
 640 256 l 1
 640 0 l 1
 256 0 l 1
EndSplineSet
Validated: 1
EndChar

StartChar: slash
Encoding: 47 47 55
Width: 1024
VWidth: 0
Flags: W
HStem: 0 128<0 128> 768 128<896 1024>
LayerCount: 2
Fore
SplineSet
768 768 m 1
 768 896 l 1
 1024 896 l 1
 1024 768 l 1
 896 768 l 1
 896 640 l 1
 768 640 l 1
 768 512 l 1
 640 512 l 1
 640 384 l 1
 512 384 l 1
 512 256 l 1
 384 256 l 1
 384 128 l 1
 256 128 l 1
 256 0 l 1
 0 0 l 1
 0 128 l 1
 128 128 l 1
 128 256 l 1
 256 256 l 1
 256 384 l 1
 384 384 l 1
 384 512 l 1
 512 512 l 1
 512 640 l 1
 640 640 l 1
 640 768 l 1
 768 768 l 1
EndSplineSet
Validated: 1
EndChar

StartChar: five
Encoding: 53 53 56
Width: 1024
VWidth: 0
Flags: W
HStem: 0 128<384 640> 128 128<128 256> 384 128<384 640> 768 128<384 896>
VStem: 128 256<128 256 512 768> 640 256<128 384>
LayerCount: 2
Fore
SplineSet
128 512 m 1xbc
 128 896 l 1
 896 896 l 1
 896 768 l 1
 384 768 l 1
 384 512 l 1
 768 512 l 1
 768 384 l 1
 896 384 l 1
 896 128 l 1
 768 128 l 1x7c
 768 0 l 1
 256 0 l 1xbc
 256 128 l 1
 128 128 l 1
 128 256 l 1
 384 256 l 1x7c
 384 128 l 1
 640 128 l 1
 640 384 l 1
 256 384 l 1
 256 512 l 1
 128 512 l 1xbc
EndSplineSet
Validated: 1
EndChar

StartChar: uni00B9
Encoding: 185 185 57
Width: 1024
VWidth: 0
Flags: W
HStem: 0 21G<512 640> 0 21G<512 640> 384 128<0 128>
VStem: 512 128<0 128> 640 256<512 768>
LayerCount: 2
Fore
SplineSet
640 512 m 1xa8
 640 768 l 1
 896 768 l 1
 896 256 l 1
 640 256 l 1xa8
 640 0 l 1
 512 0 l 1
 512 128 l 1xb0
 384 128 l 1
 384 256 l 1
 128 256 l 1
 128 384 l 1
 0 384 l 1
 0 512 l 1
 128 512 l 1
 128 640 l 1
 384 640 l 1
 384 512 l 1
 640 512 l 1xa8
EndSplineSet
Validated: 1
EndChar

StartChar: T
Encoding: 84 84 58
Width: 1024
VWidth: 0
Flags: W
HStem: 0 21G<384 640> 0 21G<384 640> 768 128<128 384 640 896>
VStem: 384 256<0 768>
LayerCount: 2
Fore
SplineSet
128 768 m 1xb0
 128 896 l 1
 896 896 l 1
 896 768 l 1
 640 768 l 1
 640 0 l 1
 384 0 l 1
 384 768 l 1
 128 768 l 1xb0
EndSplineSet
Validated: 1
EndChar

StartChar: Z
Encoding: 90 90 59
Width: 1024
VWidth: 0
Flags: W
HStem: 0 128<384 896> 768 128<128 640>
LayerCount: 2
Fore
SplineSet
128 768 m 1
 128 896 l 1
 896 896 l 1
 896 640 l 1
 768 640 l 1
 768 512 l 1
 640 512 l 1
 640 384 l 1
 512 384 l 1
 512 256 l 1
 384 256 l 1
 384 128 l 1
 896 128 l 1
 896 0 l 1
 128 0 l 1
 128 256 l 1
 256 256 l 1
 256 384 l 1
 384 384 l 1
 384 512 l 1
 512 512 l 1
 512 640 l 1
 640 640 l 1
 640 768 l 1
 128 768 l 1
EndSplineSet
Validated: 1
EndChar

StartChar: V
Encoding: 86 86 60
Width: 1024
VWidth: 0
Flags: W
HStem: 0 256<256 384 512 640> 0 128<384 512> 876 20G<0 256 640 896> 876 20G<0 256 640 896>
VStem: 0 256<256 896> 640 256<256 896>
LayerCount: 2
Fore
SplineSet
0 256 m 1x8c
 0 896 l 1
 256 896 l 1
 256 256 l 1
 384 256 l 1xac
 384 128 l 1
 512 128 l 1x4c
 512 256 l 1
 640 256 l 1
 640 896 l 1
 896 896 l 1
 896 256 l 1
 768 256 l 1xac
 768 128 l 1
 640 128 l 1x4c
 640 0 l 1
 256 0 l 1x8c
 256 128 l 1
 128 128 l 1x4c
 128 256 l 1
 0 256 l 1x8c
EndSplineSet
Validated: 1
EndChar

StartChar: uni00B2
Encoding: 178 178 61
Width: 1024
VWidth: 0
Flags: W
HStem: 0 256<128 384 512 768> 128 128<0 128 768 896> 512 128<512 640>
VStem: 384 128<256 512>
LayerCount: 2
Fore
SplineSet
384 256 m 1xb0
 384 640 l 1
 640 640 l 1
 640 512 l 1
 512 512 l 1
 512 256 l 1xb0
 896 256 l 1
 896 128 l 1
 768 128 l 1x70
 768 0 l 1
 128 0 l 1xb0
 128 128 l 1
 0 128 l 1
 0 256 l 1x70
 384 256 l 1xb0
EndSplineSet
Validated: 1
EndChar

StartChar: backslash
Encoding: 92 92 62
Width: 1024
VWidth: 0
Flags: W
HStem: 0 128<896 1024> 768 128<0 128>
LayerCount: 2
Fore
SplineSet
0 768 m 1
 0 896 l 1
 256 896 l 1
 256 768 l 1
 384 768 l 1
 384 640 l 1
 512 640 l 1
 512 512 l 1
 640 512 l 1
 640 384 l 1
 768 384 l 1
 768 256 l 1
 896 256 l 1
 896 128 l 1
 1024 128 l 1
 1024 0 l 1
 768 0 l 1
 768 128 l 1
 640 128 l 1
 640 256 l 1
 512 256 l 1
 512 384 l 1
 384 384 l 1
 384 512 l 1
 256 512 l 1
 256 640 l 1
 128 640 l 1
 128 768 l 1
 0 768 l 1
EndSplineSet
Validated: 1
EndChar

StartChar: O
Encoding: 79 79 63
Width: 1024
VWidth: 0
Flags: W
HStem: 0 128<256 640> 768 128<256 640>
VStem: 0 256<128 768> 640 256<128 768>
LayerCount: 2
Fore
SplineSet
128 768 m 1
 128 896 l 1
 768 896 l 1
 768 768 l 1
 896 768 l 1
 896 128 l 1
 768 128 l 1
 768 0 l 1
 128 0 l 1
 128 128 l 1
 0 128 l 1
 0 768 l 1
 128 768 l 1
640 128 m 1
 640 768 l 1
 256 768 l 1
 256 128 l 1
 640 128 l 1
EndSplineSet
Validated: 1
EndChar

StartChar: hyphen
Encoding: 45 45 64
Width: 1024
VWidth: 0
Flags: W
HStem: 384 128<128 896>
LayerCount: 2
Fore
SplineSet
128 384 m 1
 128 512 l 1
 896 512 l 1
 896 384 l 1
 128 384 l 1
EndSplineSet
Validated: 1
EndChar

StartChar: three
Encoding: 51 51 65
Width: 1024
VWidth: 0
Flags: W
HStem: 0 128<384 640> 128 128<128 256> 384 128<384 640> 640 128<128 256> 768 128<384 640>
VStem: 128 256<128 256 640 768> 640 256<128 384 512 768>
LayerCount: 2
Fore
SplineSet
256 768 m 1x36
 256 896 l 1
 768 896 l 1
 768 768 l 1
 896 768 l 1
 896 512 l 1
 768 512 l 1
 768 384 l 1
 896 384 l 1
 896 128 l 1
 768 128 l 1x6e
 768 0 l 1
 256 0 l 1xa6
 256 128 l 1
 128 128 l 1
 128 256 l 1
 384 256 l 1x66
 384 128 l 1
 640 128 l 1
 640 384 l 1
 384 384 l 1
 384 512 l 1
 640 512 l 1
 640 768 l 1
 384 768 l 1xae
 384 640 l 1
 128 640 l 1
 128 768 l 1
 256 768 l 1x36
EndSplineSet
Validated: 1
EndChar

StartChar: glyph66
Encoding: 258 8594 66
Width: 1024
VWidth: 0
Flags: W
HStem: 128 128<384 512> 384 128<0 512 768 896> 640 128<384 512>
VStem: 384 256<128 256 640 768> 512 256<256 384 512 640>
CounterMasks: 1 e0
LayerCount: 2
Fore
SplineSet
384 640 m 1xf0
 384 768 l 1
 640 768 l 1
 640 640 l 1xf0
 768 640 l 1
 768 512 l 1
 896 512 l 1
 896 384 l 1
 768 384 l 1
 768 256 l 1xe8
 640 256 l 1
 640 128 l 1
 384 128 l 1
 384 256 l 1xf0
 512 256 l 1
 512 384 l 1
 0 384 l 1
 0 512 l 1
 512 512 l 1
 512 640 l 1xe8
 384 640 l 1xf0
EndSplineSet
Validated: 1
EndChar

StartChar: two
Encoding: 50 50 67
Width: 1024
VWidth: 0
Flags: W
HStem: 0 128<384 896> 640 128<128 256 768 896> 768 128<384 640>
VStem: 128 256<128 256 640 768>
LayerCount: 2
Fore
SplineSet
256 768 m 1xd0
 256 896 l 1
 768 896 l 1xb0
 768 768 l 1
 896 768 l 1
 896 640 l 1
 768 640 l 1
 768 512 l 1
 640 512 l 1
 640 384 l 1
 512 384 l 1
 512 256 l 1
 384 256 l 1
 384 128 l 1
 896 128 l 1
 896 0 l 1
 128 0 l 1
 128 256 l 1
 256 256 l 1
 256 384 l 1
 384 384 l 1
 384 512 l 1
 512 512 l 1
 512 640 l 1
 640 640 l 1xd0
 640 768 l 1
 384 768 l 1xb0
 384 640 l 1
 128 640 l 1
 128 768 l 1
 256 768 l 1xd0
EndSplineSet
Validated: 1
EndChar

StartChar: comma
Encoding: 44 44 68
Width: 1024
VWidth: 0
Flags: W
HStem: 0 128<256 384>
LayerCount: 2
Fore
SplineSet
256 256 m 1
 256 512 l 1
 640 512 l 1
 640 128 l 1
 512 128 l 1
 512 0 l 1
 256 0 l 1
 256 128 l 1
 384 128 l 1
 384 256 l 1
 256 256 l 1
EndSplineSet
Validated: 1
EndChar

StartChar: N
Encoding: 78 78 69
Width: 1024
VWidth: 0
Flags: W
HStem: 0 21G<0 256 640 896> 0 21G<0 256 640 896> 876 20G<0 256 640 896> 876 20G<0 256 640 896>
VStem: 0 256<0 384 768 896> 640 256<0 128 512 896>
LayerCount: 2
Fore
SplineSet
0 0 m 1xac
 0 896 l 1
 256 896 l 1
 256 768 l 1
 384 768 l 1
 384 640 l 1
 512 640 l 1
 512 512 l 1
 640 512 l 1
 640 896 l 1
 896 896 l 1
 896 0 l 1
 640 0 l 1
 640 128 l 1
 512 128 l 1
 512 256 l 1
 384 256 l 1
 384 384 l 1
 256 384 l 1
 256 0 l 1
 0 0 l 1xac
EndSplineSet
Validated: 1
EndChar

StartChar: bracketright
Encoding: 93 93 70
Width: 1024
VWidth: 0
Flags: W
HStem: 0 128<256 384> 768 128<256 384>
VStem: 384 256<128 768>
LayerCount: 2
Fore
SplineSet
256 768 m 1
 256 896 l 1
 640 896 l 1
 640 0 l 1
 256 0 l 1
 256 128 l 1
 384 128 l 1
 384 768 l 1
 256 768 l 1
EndSplineSet
Validated: 1
EndChar

StartChar: W
Encoding: 87 87 71
Width: 1024
VWidth: 0
Flags: W
HStem: 0 21G<0 256 640 896> 0 21G<0 256 640 896> 128 256<256 384 512 640> 876 20G<0 256 640 896> 876 20G<0 256 640 896>
VStem: 0 256<0 128 384 896> 384 128<384 512> 640 256<0 128 384 896>
CounterMasks: 1 07
LayerCount: 2
Fore
SplineSet
0 0 m 1xb7
 0 896 l 1
 256 896 l 1
 256 384 l 1
 384 384 l 1
 384 512 l 1
 512 512 l 1
 512 384 l 1
 640 384 l 1
 640 896 l 1
 896 896 l 1
 896 0 l 1
 640 0 l 1
 640 128 l 1
 512 128 l 1
 512 256 l 1
 384 256 l 1
 384 128 l 1
 256 128 l 1
 256 0 l 1
 0 0 l 1xb7
EndSplineSet
Validated: 1
EndChar

StartChar: uni00B3
Encoding: 179 179 72
Width: 1024
VWidth: 0
Flags: W
HStem: 0 256<128 256 640 896> 128 128<0 128 896 1024>
VStem: 384 128<384 512>
LayerCount: 2
Fore
SplineSet
384 384 m 1xa0
 384 512 l 1
 512 512 l 1
 512 384 l 1
 640 384 l 1
 640 256 l 1xa0
 1024 256 l 1
 1024 128 l 1
 896 128 l 1x60
 896 0 l 1
 128 0 l 1xa0
 128 128 l 1
 0 128 l 1
 0 256 l 1x60
 256 256 l 1
 256 384 l 1
 384 384 l 1xa0
EndSplineSet
Validated: 1
EndChar

StartChar: S
Encoding: 83 83 73
Width: 1024
VWidth: 0
Flags: W
HStem: 0 128<256 640> 128 128<0 128> 384 128<256 640> 640 128<768 896> 768 128<256 640>
VStem: 0 256<128 256 512 768> 640 256<128 384 640 768>
LayerCount: 2
Fore
SplineSet
128 768 m 1xae
 128 896 l 1
 768 896 l 1xae
 768 768 l 1
 896 768 l 1
 896 640 l 1
 640 640 l 1x36
 640 768 l 1
 256 768 l 1
 256 512 l 1
 768 512 l 1
 768 384 l 1
 896 384 l 1
 896 128 l 1
 768 128 l 1x6e
 768 0 l 1
 128 0 l 1xa6
 128 128 l 1
 0 128 l 1
 0 256 l 1
 256 256 l 1x66
 256 128 l 1
 640 128 l 1
 640 384 l 1
 128 384 l 1
 128 512 l 1
 0 512 l 1
 0 768 l 1
 128 768 l 1xae
EndSplineSet
Validated: 1
EndChar

StartChar: a
Encoding: 97 97 74
Width: 1024
VWidth: 0
Flags: W
HStem: 0 21G<0 256 640 896> 0 21G<0 256 640 896> 256 128<256 640> 640 256<256 384 512 640> 768 128<384 512>
VStem: 0 256<0 256 384 640> 640 256<0 256 384 640>
LayerCount: 2
Fore
SplineSet
256 768 m 1x2e
 256 896 l 1
 640 896 l 1x36
 640 768 l 1
 768 768 l 1x2e
 768 640 l 1
 896 640 l 1
 896 0 l 1
 640 0 l 1
 640 256 l 1
 256 256 l 1
 256 0 l 1
 0 0 l 1
 0 640 l 1
 128 640 l 1xb6
 128 768 l 1
 256 768 l 1x2e
512 640 m 1
 512 768 l 1
 384 768 l 1x2e
 384 640 l 1
 256 640 l 1
 256 384 l 1
 640 384 l 1
 640 640 l 1
 512 640 l 1
EndSplineSet
Validated: 1
EndChar

StartChar: parenleft
Encoding: 40 40 75
Width: 1024
VWidth: 0
Flags: W
HStem: 0 128<640 768> 768 128<640 768>
VStem: 384 256<128 768> 512 256<0 128 768 896>
LayerCount: 2
Fore
SplineSet
512 768 m 1xd0
 512 896 l 1
 768 896 l 1
 768 768 l 1xd0
 640 768 l 1
 640 128 l 1xe0
 768 128 l 1
 768 0 l 1
 512 0 l 1
 512 128 l 1xd0
 384 128 l 1
 384 768 l 1xe0
 512 768 l 1xd0
EndSplineSet
Validated: 1
EndChar

StartChar: six
Encoding: 54 54 76
Width: 1024
VWidth: 0
Flags: W
HStem: 0 128<384 640> 384 128<384 640> 640 128<768 896> 768 128<384 640>
VStem: 128 256<128 384 512 768> 640 256<128 384 640 768>
LayerCount: 2
Fore
SplineSet
256 768 m 1xdc
 256 896 l 1
 768 896 l 1xdc
 768 768 l 1
 896 768 l 1
 896 640 l 1
 640 640 l 1xec
 640 768 l 1
 384 768 l 1
 384 512 l 1
 768 512 l 1
 768 384 l 1
 896 384 l 1
 896 128 l 1
 768 128 l 1
 768 0 l 1
 256 0 l 1
 256 128 l 1
 128 128 l 1
 128 768 l 1
 256 768 l 1xdc
640 128 m 1
 640 384 l 1
 384 384 l 1
 384 128 l 1
 640 128 l 1
EndSplineSet
Validated: 1
EndChar

StartChar: D
Encoding: 68 68 77
Width: 1024
VWidth: 0
Flags: W
HStem: 0 128<256 640> 768 128<256 640>
VStem: 0 256<128 768> 640 256<128 768>
LayerCount: 2
Fore
SplineSet
0 0 m 1
 0 896 l 1
 768 896 l 1
 768 768 l 1
 896 768 l 1
 896 128 l 1
 768 128 l 1
 768 0 l 1
 0 0 l 1
640 128 m 1
 640 768 l 1
 256 768 l 1
 256 128 l 1
 640 128 l 1
EndSplineSet
Validated: 1
EndChar

StartChar: E
Encoding: 69 69 78
Width: 1024
VWidth: 0
Flags: W
HStem: 0 128<256 896> 384 128<256 640> 768 128<256 896>
VStem: 0 256<128 384 512 768>
CounterMasks: 1 e0
LayerCount: 2
Fore
SplineSet
0 0 m 1
 0 896 l 1
 896 896 l 1
 896 768 l 1
 256 768 l 1
 256 512 l 1
 640 512 l 1
 640 384 l 1
 256 384 l 1
 256 128 l 1
 896 128 l 1
 896 0 l 1
 0 0 l 1
EndSplineSet
Validated: 1
EndChar

StartChar: seven
Encoding: 55 55 79
Width: 1024
VWidth: 0
Flags: W
HStem: 0 128<0 128> 768 128<0 640>
LayerCount: 2
Fore
SplineSet
0 768 m 1
 0 896 l 1
 896 896 l 1
 896 640 l 1
 768 640 l 1
 768 512 l 1
 640 512 l 1
 640 384 l 1
 512 384 l 1
 512 256 l 1
 384 256 l 1
 384 128 l 1
 256 128 l 1
 256 0 l 1
 0 0 l 1
 0 128 l 1
 128 128 l 1
 128 256 l 1
 256 256 l 1
 256 384 l 1
 384 384 l 1
 384 512 l 1
 512 512 l 1
 512 640 l 1
 640 640 l 1
 640 768 l 1
 0 768 l 1
EndSplineSet
Validated: 1
EndChar

StartChar: parenright
Encoding: 41 41 80
Width: 1024
VWidth: 0
Flags: W
HStem: 0 128<256 384> 768 128<256 384>
VStem: 256 256<0 128 768 896> 384 256<128 768>
LayerCount: 2
Fore
SplineSet
256 768 m 1xe0
 256 896 l 1
 512 896 l 1
 512 768 l 1xe0
 640 768 l 1
 640 128 l 1xd0
 512 128 l 1
 512 0 l 1
 256 0 l 1
 256 128 l 1xe0
 384 128 l 1
 384 768 l 1xd0
 256 768 l 1xe0
EndSplineSet
Validated: 1
EndChar

StartChar: grave
Encoding: 96 96 81
Width: 1024
VWidth: 0
Flags: W
HStem: 640 256<384 640>
VStem: 384 256<640 896>
LayerCount: 2
Fore
SplineSet
384 640 m 1
 384 896 l 1
 640 896 l 1
 640 640 l 1
 384 640 l 1
EndSplineSet
Validated: 1
EndChar

StartChar: R
Encoding: 82 82 82
Width: 1024
VWidth: 0
Flags: W
HStem: 0 128<768 896> 384 128<256 384> 768 128<256 640>
VStem: 0 256<0 384 512 768> 640 256<0 128 512 768>
CounterMasks: 1 e0
LayerCount: 2
Fore
SplineSet
0 0 m 1
 0 896 l 1
 768 896 l 1
 768 768 l 1
 896 768 l 1
 896 512 l 1
 768 512 l 1
 768 384 l 1
 640 384 l 1
 640 256 l 1
 768 256 l 1
 768 128 l 1
 896 128 l 1
 896 0 l 1
 640 0 l 1
 640 128 l 1
 512 128 l 1
 512 256 l 1
 384 256 l 1
 384 384 l 1
 256 384 l 1
 256 0 l 1
 0 0 l 1
640 512 m 1
 640 768 l 1
 256 768 l 1
 256 512 l 1
 640 512 l 1
EndSplineSet
Validated: 1
EndChar

StartChar: asciicircum
Encoding: 94 94 83
Width: 1024
VWidth: 0
Flags: W
HStem: 512 256<256 384 640 768> 512 128<128 256 768 896> 640 256<384 640>
LayerCount: 2
Fore
SplineSet
384 768 m 1x80
 384 896 l 1
 640 896 l 1x20
 640 768 l 1
 768 768 l 1x80
 768 640 l 1
 896 640 l 1
 896 512 l 1x40
 640 512 l 1x80
 640 640 l 1
 384 640 l 1x20
 384 512 l 1x80
 128 512 l 1
 128 640 l 1
 256 640 l 1x40
 256 768 l 1
 384 768 l 1x80
EndSplineSet
Validated: 1
EndChar

StartChar: P
Encoding: 80 80 84
Width: 1024
VWidth: 0
Flags: W
HStem: 0 21G<0 256> 0 21G<0 256> 384 128<256 640> 768 128<256 640>
VStem: 0 256<0 384 512 768> 640 256<512 768>
LayerCount: 2
Fore
SplineSet
0 0 m 1xbc
 0 896 l 1
 768 896 l 1
 768 768 l 1
 896 768 l 1
 896 512 l 1
 768 512 l 1
 768 384 l 1
 256 384 l 1
 256 0 l 1
 0 0 l 1xbc
640 512 m 1
 640 768 l 1
 256 768 l 1
 256 512 l 1
 640 512 l 1
EndSplineSet
Validated: 1
EndChar

StartChar: nine
Encoding: 57 57 85
Width: 1024
VWidth: 0
Flags: W
HStem: 0 128<384 640> 128 128<128 256> 384 128<384 640> 768 128<384 640>
VStem: 128 256<128 256 512 768> 640 256<128 384 512 768>
LayerCount: 2
Fore
SplineSet
256 768 m 1xbc
 256 896 l 1
 768 896 l 1
 768 768 l 1
 896 768 l 1
 896 128 l 1
 768 128 l 1x7c
 768 0 l 1
 256 0 l 1xbc
 256 128 l 1
 128 128 l 1
 128 256 l 1
 384 256 l 1x7c
 384 128 l 1
 640 128 l 1
 640 384 l 1
 256 384 l 1
 256 512 l 1
 128 512 l 1
 128 768 l 1
 256 768 l 1xbc
640 512 m 1
 640 768 l 1
 384 768 l 1
 384 512 l 1
 640 512 l 1
EndSplineSet
Validated: 1
EndChar

StartChar: plus
Encoding: 43 43 86
Width: 1024
VWidth: 0
Flags: W
HStem: 384 128<128 384 640 896>
VStem: 384 256<128 384 512 768>
LayerCount: 2
Fore
SplineSet
384 512 m 1
 384 768 l 1
 640 768 l 1
 640 512 l 1
 896 512 l 1
 896 384 l 1
 640 384 l 1
 640 128 l 1
 384 128 l 1
 384 384 l 1
 128 384 l 1
 128 512 l 1
 384 512 l 1
EndSplineSet
Validated: 1
EndChar

StartChar: glyph87
Encoding: 259 9698 87
Width: 1024
VWidth: 0
Flags: W
HStem: 0 128<0 128> 876 20G<768 896> 876 20G<768 896>
VStem: 768 128<768 896>
LayerCount: 2
Fore
SplineSet
768 768 m 1xd0
 768 896 l 1
 896 896 l 1
 896 0 l 1
 0 0 l 1
 0 128 l 1
 128 128 l 1
 128 256 l 1
 256 256 l 1
 256 384 l 1
 384 384 l 1
 384 512 l 1
 512 512 l 1
 512 640 l 1
 640 640 l 1
 640 768 l 1
 768 768 l 1xd0
EndSplineSet
Validated: 1
EndChar

StartChar: glyph88
Encoding: 260 9699 88
Width: 1024
VWidth: 0
Flags: W
HStem: 0 128<768 896> 876 20G<0 128> 876 20G<0 128>
VStem: 0 128<768 896>
LayerCount: 2
Fore
SplineSet
0 0 m 1xd0
 0 896 l 1
 128 896 l 1
 128 768 l 1
 256 768 l 1
 256 640 l 1
 384 640 l 1
 384 512 l 1
 512 512 l 1
 512 384 l 1
 640 384 l 1
 640 256 l 1
 768 256 l 1
 768 128 l 1
 896 128 l 1
 896 0 l 1
 0 0 l 1xd0
EndSplineSet
Validated: 1
EndChar

StartChar: asterisk
Encoding: 42 42 89
Width: 1024
VWidth: 0
Flags: W
HStem: 128 128<128 256 768 896> 384 128<128 256 768 896> 640 128<128 256 768 896>
VStem: 128 256<128 256 640 768> 640 256<128 256 640 768>
CounterMasks: 1 e0
LayerCount: 2
Fore
SplineSet
128 640 m 1
 128 768 l 1
 384 768 l 1
 384 640 l 1
 640 640 l 1
 640 768 l 1
 896 768 l 1
 896 640 l 1
 768 640 l 1
 768 512 l 1
 896 512 l 1
 896 384 l 1
 768 384 l 1
 768 256 l 1
 896 256 l 1
 896 128 l 1
 640 128 l 1
 640 256 l 1
 384 256 l 1
 384 128 l 1
 128 128 l 1
 128 256 l 1
 256 256 l 1
 256 384 l 1
 128 384 l 1
 128 512 l 1
 256 512 l 1
 256 640 l 1
 128 640 l 1
EndSplineSet
Validated: 1
EndChar

StartChar: eight
Encoding: 56 56 90
Width: 1024
VWidth: 0
Flags: W
HStem: 0 128<384 640> 128 256<128 256 768 896> 384 128<384 640> 512 256<128 256 768 896> 768 128<384 640>
VStem: 128 256<128 384 512 768> 256 512<0 128 384 512 768 896> 640 256<128 384 512 768>
LayerCount: 2
Fore
SplineSet
256 768 m 1x52
 256 896 l 1
 768 896 l 1x0a
 768 768 l 1x12
 896 768 l 1
 896 512 l 1x11
 768 512 l 1
 768 384 l 1x52
 896 384 l 1
 896 128 l 1x51
 768 128 l 1x52
 768 0 l 1
 256 0 l 1x82
 256 128 l 1x42
 128 128 l 1
 128 384 l 1x44
 256 384 l 1
 256 512 l 1x52
 128 512 l 1
 128 768 l 1x54
 256 768 l 1x52
640 512 m 1x2d
 640 768 l 1
 384 768 l 1
 384 512 l 1
 640 512 l 1x2d
640 128 m 1xa5
 640 384 l 1
 384 384 l 1
 384 128 l 1
 640 128 l 1xa5
EndSplineSet
Validated: 1
EndChar

StartChar: Q
Encoding: 81 81 91
Width: 1024
VWidth: 0
Flags: W
HStem: 0 128<256 512 768 896> 256 128<384 512> 768 128<256 640>
VStem: 0 256<128 768> 640 256<0 128 384 768>
LayerCount: 2
Fore
SplineSet
128 768 m 1
 128 896 l 1
 768 896 l 1
 768 768 l 1
 896 768 l 1
 896 256 l 1
 768 256 l 1
 768 128 l 1
 896 128 l 1
 896 0 l 1
 640 0 l 1
 640 128 l 1
 512 128 l 1
 512 256 l 1
 384 256 l 1
 384 384 l 1
 640 384 l 1
 640 768 l 1
 256 768 l 1
 256 128 l 1
 512 128 l 1
 512 0 l 1
 128 0 l 1
 128 128 l 1
 0 128 l 1
 0 768 l 1
 128 768 l 1
EndSplineSet
Validated: 5
EndChar

StartChar: underscore
Encoding: 95 95 92
Width: 1024
VWidth: 0
Flags: W
HStem: 0 128<128 896>
LayerCount: 2
Fore
SplineSet
128 0 m 1
 128 128 l 1
 896 128 l 1
 896 0 l 1
 128 0 l 1
EndSplineSet
Validated: 1
EndChar

StartChar: bar
Encoding: 124 124 93
Width: 1024
VWidth: 0
Flags: W
HStem: 0 21G<384 640> 0 21G<384 640> 876 20G<384 640> 876 20G<384 640>
VStem: 384 256<0 896>
LayerCount: 2
Fore
SplineSet
384 0 m 1xa8
 384 896 l 1
 640 896 l 1
 640 0 l 1
 384 0 l 1xa8
EndSplineSet
Validated: 1
EndChar

StartChar: v
Encoding: 118 118 94
Width: 1024
VWidth: 0
Flags: W
HStem: 0 256<256 384 512 640> 0 128<384 512> 876 20G<0 256 640 896> 876 20G<0 256 640 896>
VStem: 0 256<256 896> 640 256<256 896>
LayerCount: 2
Fore
SplineSet
0 256 m 1x8c
 0 896 l 1
 256 896 l 1
 256 256 l 1
 384 256 l 1xac
 384 128 l 1
 512 128 l 1x4c
 512 256 l 1
 640 256 l 1
 640 896 l 1
 896 896 l 1
 896 256 l 1
 768 256 l 1xac
 768 128 l 1
 640 128 l 1x4c
 640 0 l 1
 256 0 l 1x8c
 256 128 l 1
 128 128 l 1x4c
 128 256 l 1
 0 256 l 1x8c
EndSplineSet
Validated: 1
EndChar

StartChar: divide
Encoding: 247 247 95
Width: 1024
VWidth: 0
Flags: W
HStem: 128 128<256 512> 384 128<0 768> 640 128<256 512>
VStem: 256 256<128 256 640 768>
CounterMasks: 1 e0
LayerCount: 2
Fore
SplineSet
256 640 m 1
 256 768 l 1
 512 768 l 1
 512 640 l 1
 256 640 l 1
0 384 m 1
 0 512 l 1
 768 512 l 1
 768 384 l 1
 0 384 l 1
256 128 m 1
 256 256 l 1
 512 256 l 1
 512 128 l 1
 256 128 l 1
EndSplineSet
Validated: 1
EndChar

StartChar: w
Encoding: 119 119 96
Width: 1024
VWidth: 0
Flags: W
HStem: 0 21G<0 256 640 896> 0 21G<0 256 640 896> 128 256<256 384 512 640> 876 20G<0 256 640 896> 876 20G<0 256 640 896>
VStem: 0 256<0 128 384 896> 384 128<384 512> 640 256<0 128 384 896>
CounterMasks: 1 07
LayerCount: 2
Fore
SplineSet
0 0 m 1xb7
 0 896 l 1
 256 896 l 1
 256 384 l 1
 384 384 l 1
 384 512 l 1
 512 512 l 1
 512 384 l 1
 640 384 l 1
 640 896 l 1
 896 896 l 1
 896 0 l 1
 640 0 l 1
 640 128 l 1
 512 128 l 1
 512 256 l 1
 384 256 l 1
 384 128 l 1
 256 128 l 1
 256 0 l 1
 0 0 l 1xb7
EndSplineSet
Validated: 1
EndChar

StartChar: braceright
Encoding: 125 125 97
Width: 1024
VWidth: 0
Flags: W
HStem: 0 128<256 384> 384 128<640 768> 768 128<256 384>
VStem: 256 256<0 128 768 896> 384 256<128 384 512 768>
CounterMasks: 1 e0
LayerCount: 2
Fore
SplineSet
256 768 m 1xf0
 256 896 l 1
 512 896 l 1
 512 768 l 1xf0
 640 768 l 1
 640 512 l 1
 768 512 l 1
 768 384 l 1
 640 384 l 1
 640 128 l 1xe8
 512 128 l 1
 512 0 l 1
 256 0 l 1
 256 128 l 1xf0
 384 128 l 1
 384 384 l 1xe8
 512 384 l 1
 512 512 l 1xf0
 384 512 l 1
 384 768 l 1xe8
 256 768 l 1xf0
EndSplineSet
Validated: 1
EndChar

StartChar: glyph99
Encoding: 261 9824 99
Width: 1024
VWidth: 0
Flags: W
HStem: 0 21G<384 640> 0 21G<384 640> 256 256<0 128 896 1024> 876 20G<384 640> 876 20G<384 640>
VStem: 384 256<0 256 768 896>
LayerCount: 2
Fore
SplineSet
384 768 m 1xb4
 384 896 l 1
 640 896 l 1
 640 768 l 1
 768 768 l 1
 768 640 l 1
 896 640 l 1
 896 512 l 1
 1024 512 l 1
 1024 256 l 1
 640 256 l 1
 640 0 l 1
 384 0 l 1
 384 256 l 1
 0 256 l 1
 0 512 l 1
 128 512 l 1
 128 640 l 1
 256 640 l 1
 256 768 l 1
 384 768 l 1xb4
EndSplineSet
Validated: 1
EndChar

StartChar: exclam
Encoding: 33 33 100
Width: 1024
VWidth: 0
Flags: W
HStem: 0 128<384 640> 876 20G<384 640> 876 20G<384 640>
VStem: 384 256<0 128 256 896>
LayerCount: 2
Fore
SplineSet
384 256 m 1xd0
 384 896 l 1
 640 896 l 1
 640 256 l 1
 384 256 l 1xd0
384 0 m 1
 384 128 l 1
 640 128 l 1
 640 0 l 1
 384 0 l 1
EndSplineSet
Validated: 1
EndChar

StartChar: asciitilde
Encoding: 126 126 101
Width: 1024
VWidth: 0
Flags: W
HStem: 256 128<0 128 640 768> 384 128<256 384 896 1024>
LayerCount: 2
Fore
SplineSet
128 384 m 1x80
 128 512 l 1
 640 512 l 1x40
 640 384 l 1
 768 384 l 1x80
 768 512 l 1
 1024 512 l 1
 1024 384 l 1
 896 384 l 1x40
 896 256 l 1
 384 256 l 1x80
 384 384 l 1
 256 384 l 1x40
 256 256 l 1
 0 256 l 1
 0 384 l 1
 128 384 l 1x80
EndSplineSet
Validated: 1
EndChar

StartChar: z
Encoding: 122 122 102
Width: 1024
VWidth: 0
Flags: W
HStem: 0 128<384 896> 768 128<128 640>
LayerCount: 2
Fore
SplineSet
128 768 m 1
 128 896 l 1
 896 896 l 1
 896 640 l 1
 768 640 l 1
 768 512 l 1
 640 512 l 1
 640 384 l 1
 512 384 l 1
 512 256 l 1
 384 256 l 1
 384 128 l 1
 896 128 l 1
 896 0 l 1
 128 0 l 1
 128 256 l 1
 256 256 l 1
 256 384 l 1
 384 384 l 1
 384 512 l 1
 512 512 l 1
 512 640 l 1
 640 640 l 1
 640 768 l 1
 128 768 l 1
EndSplineSet
Validated: 1
EndChar

StartChar: percent
Encoding: 37 37 103
Width: 1024
VWidth: 0
Flags: W
HStem: 0 256<128 256 640 896> 0 128<0 128> 512 256<0 256 640 768> 640 128<768 896>
VStem: 0 256<0 128 512 768> 640 256<0 256 640 768>
LayerCount: 2
Fore
SplineSet
0 512 m 1x2c
 0 768 l 1
 256 768 l 1
 256 512 l 1
 0 512 l 1x2c
640 640 m 1x1c
 640 768 l 1x2c
 896 768 l 1
 896 640 l 1
 768 640 l 1x1c
 768 512 l 1
 640 512 l 1
 640 384 l 1
 512 384 l 1
 512 256 l 1
 384 256 l 1xac
 384 128 l 1
 256 128 l 1x4c
 256 0 l 1x8c
 0 0 l 1
 0 128 l 1
 128 128 l 1x4c
 128 256 l 1
 256 256 l 1
 256 384 l 1
 384 384 l 1
 384 512 l 1
 512 512 l 1xac
 512 640 l 1
 640 640 l 1x1c
640 0 m 1x8c
 640 256 l 1
 896 256 l 1
 896 0 l 1
 640 0 l 1x8c
EndSplineSet
Validated: 1
EndChar

StartChar: dollar
Encoding: 36 36 104
Width: 1024
VWidth: 0
Flags: W
HStem: 0 21G<384 640> 0 21G<384 640> 128 128<128 384 640 768> 384 128<256 384 640 768> 640 128<256 384 640 896> 876 20G<384 640> 876 20G<384 640>
VStem: 128 128<512 640> 384 256<0 128 256 384 512 640 768 896> 768 128<256 384>
CounterMasks: 1 01c0
LayerCount: 2
Fore
SplineSet
384 768 m 1xbdc0
 384 896 l 1
 640 896 l 1
 640 768 l 1
 896 768 l 1
 896 640 l 1
 640 640 l 1
 640 512 l 1
 896 512 l 1
 896 128 l 1
 640 128 l 1
 640 0 l 1
 384 0 l 1
 384 128 l 1
 128 128 l 1
 128 256 l 1
 384 256 l 1
 384 384 l 1
 128 384 l 1
 128 768 l 1
 384 768 l 1xbdc0
384 512 m 1
 384 640 l 1
 256 640 l 1
 256 512 l 1
 384 512 l 1
768 256 m 1
 768 384 l 1
 640 384 l 1
 640 256 l 1
 768 256 l 1
EndSplineSet
Validated: 1
EndChar

StartChar: braceleft
Encoding: 123 123 105
Width: 1024
VWidth: 0
Flags: W
HStem: 0 128<640 768> 384 128<256 384> 768 128<640 768>
VStem: 384 256<128 384 512 768> 512 256<0 128 768 896>
CounterMasks: 1 e0
LayerCount: 2
Fore
SplineSet
512 768 m 1xe8
 512 896 l 1
 768 896 l 1
 768 768 l 1xe8
 640 768 l 1
 640 512 l 1xf0
 512 512 l 1
 512 384 l 1xe8
 640 384 l 1
 640 128 l 1xf0
 768 128 l 1
 768 0 l 1
 512 0 l 1
 512 128 l 1xe8
 384 128 l 1
 384 384 l 1
 256 384 l 1
 256 512 l 1
 384 512 l 1
 384 768 l 1xf0
 512 768 l 1xe8
EndSplineSet
Validated: 1
EndChar

StartChar: m
Encoding: 109 109 106
Width: 1024
VWidth: 0
Flags: W
HStem: 0 21G<0 256 640 896> 0 21G<0 256 640 896> 512 256<256 384 512 640> 876 20G<0 256 640 896> 876 20G<0 256 640 896>
VStem: 0 256<0 512 768 896> 384 128<384 512> 640 256<0 512 768 896>
CounterMasks: 1 07
LayerCount: 2
Fore
SplineSet
0 0 m 1xb7
 0 896 l 1
 256 896 l 1
 256 768 l 1
 384 768 l 1
 384 640 l 1
 512 640 l 1
 512 768 l 1
 640 768 l 1
 640 896 l 1
 896 896 l 1
 896 0 l 1
 640 0 l 1
 640 512 l 1
 512 512 l 1
 512 384 l 1
 384 384 l 1
 384 512 l 1
 256 512 l 1
 256 0 l 1
 0 0 l 1xb7
EndSplineSet
Validated: 1
EndChar

StartChar: y
Encoding: 121 121 107
Width: 1024
VWidth: 0
Flags: W
HStem: 0 21G<384 640> 0 21G<384 640> 876 20G<128 384 640 896> 876 20G<128 384 640 896>
VStem: 128 256<512 896> 384 256<0 384> 640 256<512 896>
LayerCount: 2
Fore
SplineSet
128 512 m 1xa8
 128 896 l 1
 384 896 l 1
 384 512 l 1
 640 512 l 1
 640 896 l 1
 896 896 l 1
 896 512 l 1xaa
 768 512 l 1
 768 384 l 1
 640 384 l 1
 640 0 l 1
 384 0 l 1
 384 384 l 1xa4
 256 384 l 1
 256 512 l 1
 128 512 l 1xa8
EndSplineSet
Validated: 1
EndChar

StartChar: quotedbl
Encoding: 34 34 108
Width: 1024
VWidth: 0
Flags: W
HStem: 640 256<128 384 640 896>
VStem: 128 256<640 896> 640 256<640 896>
LayerCount: 2
Fore
SplineSet
128 640 m 1
 128 896 l 1
 384 896 l 1
 384 640 l 1
 128 640 l 1
640 640 m 1
 640 896 l 1
 896 896 l 1
 896 640 l 1
 640 640 l 1
EndSplineSet
Validated: 1
EndChar

StartChar: numbersign
Encoding: 35 35 109
Width: 1024
VWidth: 0
Flags: W
HStem: 0 21G<128 384 512 768> 0 21G<128 384 512 768> 128 128<0 128 384 512 768 896> 512 128<0 128 384 512 768 896>
VStem: 128 256<0 128 256 512 640 768> 512 256<0 128 256 512 640 768>
LayerCount: 2
Fore
SplineSet
128 640 m 1xbc
 128 768 l 1
 384 768 l 1
 384 640 l 1
 512 640 l 1
 512 768 l 1
 768 768 l 1
 768 640 l 1
 896 640 l 1
 896 512 l 1
 768 512 l 1
 768 256 l 1
 896 256 l 1
 896 128 l 1
 768 128 l 1
 768 0 l 1
 512 0 l 1
 512 128 l 1
 384 128 l 1
 384 0 l 1
 128 0 l 1
 128 128 l 1
 0 128 l 1
 0 256 l 1
 128 256 l 1
 128 512 l 1
 0 512 l 1
 0 640 l 1
 128 640 l 1xbc
512 256 m 1
 512 512 l 1
 384 512 l 1
 384 256 l 1
 512 256 l 1
EndSplineSet
Validated: 1
EndChar

StartChar: x
Encoding: 120 120 110
Width: 1024
VWidth: 0
Flags: W
HStem: 0 256<0 128 768 896> 384 128<384 512> 640 256<0 128 768 896>
VStem: 0 256<0 256 640 896> 128 256<256 384 512 640> 512 256<256 384 512 640> 640 256<0 256 640 896>
CounterMasks: 1 e0
LayerCount: 2
Fore
SplineSet
0 640 m 1xf0
 0 896 l 1
 256 896 l 1
 256 640 l 1xf0
 384 640 l 1
 384 512 l 1
 512 512 l 1
 512 640 l 1xec
 640 640 l 1
 640 896 l 1
 896 896 l 1
 896 640 l 1xe2
 768 640 l 1
 768 512 l 1xe4
 640 512 l 1
 640 384 l 1xe2
 768 384 l 1
 768 256 l 1xe4
 896 256 l 1
 896 0 l 1
 640 0 l 1
 640 256 l 1xe2
 512 256 l 1
 512 384 l 1
 384 384 l 1
 384 256 l 1xec
 256 256 l 1
 256 0 l 1
 0 0 l 1
 0 256 l 1xf0
 128 256 l 1
 128 384 l 1xe8
 256 384 l 1
 256 512 l 1xf0
 128 512 l 1
 128 640 l 1xe8
 0 640 l 1xf0
EndSplineSet
Validated: 1
EndChar

StartChar: l
Encoding: 108 108 111
Width: 1024
VWidth: 0
Flags: W
HStem: 0 128<256 768> 876 20G<0 256> 876 20G<0 256>
VStem: 0 256<128 896>
LayerCount: 2
Fore
SplineSet
0 0 m 1xd0
 0 896 l 1
 256 896 l 1
 256 128 l 1
 768 128 l 1
 768 0 l 1
 0 0 l 1xd0
EndSplineSet
Validated: 1
EndChar
